<?xml version="1.0" encoding="UTF-8"?><!DOCTYPE svg PUBLIC "-//W3C//DTD SVG 1.1//EN" "http://www.w3.org/Graphics/SVG/1.1/DTD/svg11.dtd"><svg xmlns="http://www.w3.org/2000/svg" xmlns:xlink="http://www.w3.org/1999/xlink"><symbol id="arrow-down" viewBox="0 0 24 22">
<path d="M19.497 7.32321L12 14.0222L4.503 7.32321C4.36905 7.20328 4.18924 7.13614 4.002 7.13614C3.81476 7.13614 3.63495 7.20328 3.501 7.32321C3.43614 7.38146 3.38462 7.45099 3.34944 7.52773C3.31427 7.60446 3.29615 7.68686 3.29615 7.77009C3.29615 7.85332 3.31427 7.93572 3.34944 8.01245C3.38462 8.08918 3.43614 8.15871 3.501 8.21696L11.4765 15.345C11.6166 15.4701 11.8044 15.5401 12 15.5401C12.1956 15.5401 12.3834 15.4701 12.5235 15.345L20.499 8.21834C20.5643 8.16004 20.6162 8.09035 20.6517 8.01336C20.6871 7.93637 20.7054 7.85365 20.7054 7.77009C20.7054 7.68652 20.6871 7.60381 20.6517 7.52682C20.6162 7.44983 20.5643 7.38013 20.499 7.32184C20.3651 7.20191 20.1852 7.13477 19.998 7.13477C19.8108 7.13477 19.6309 7.20191 19.497 7.32184V7.32321Z" fill="#26A9E0"/>
</symbol></svg>